<svg width="47" height="22" viewBox="0 0 47 22" fill="none" xmlns="http://www.w3.org/2000/svg">
<g clip-path="url(#clip0)">
<path d="M0.857316 19.8296V21.9076H0V16.9641H0.857316V19.0237H3.18367V16.9641H4.04098V21.9146H3.18367V19.8365L0.857316 19.8296Z" fill="#E86522"/>
<path d="M9.7445 17.7422H6.98608V19.0307H9.43068V19.8088H6.98608V21.1364H9.77861V21.9146H6.14014V16.9641H9.75587L9.7445 17.7422Z" fill="#E86522"/>
<path d="M14.8157 21.9146L13.5332 20.042L12.2438 21.9146H11.2637L13.0397 19.3955L11.3319 16.9641H12.3416L13.5536 18.7397L14.7816 16.9641H15.764L14.0562 19.3955L15.8254 21.9354L14.8157 21.9146Z" fill="#E86522"/>
<path d="M22.115 21.9145H21.2054L20.712 20.7208H18.4197L17.9194 21.9145H17.0303L19.1747 16.9294H19.9683L22.115 21.9145ZM19.5567 17.9685L18.7222 19.9496H20.4004L19.5567 17.9685Z" fill="#E86522"/>
<path d="M28.105 21.9146H27.0612L25.3966 19.6864L24.6371 20.4784V21.9146H23.7798V16.9641H24.6371V19.4532L26.9566 16.9641H28.0095L25.9811 19.093L28.105 21.9146Z" fill="#E86522"/>
<path d="M31.6274 22C31.1305 21.9932 30.6465 21.8374 30.2365 21.5522C29.8264 21.267 29.5085 20.8652 29.3226 20.3971C29.1367 19.929 29.0912 19.4157 29.1918 18.9214C29.2924 18.4272 29.5346 17.9742 29.8879 17.6192C30.2412 17.2643 30.69 17.0233 31.1778 16.9265C31.6656 16.8297 32.1707 16.8814 32.6297 17.0751C33.0886 17.2688 33.4809 17.5959 33.7574 18.0153C34.0338 18.4347 34.1821 18.9277 34.1835 19.4324C34.1908 19.774 34.1294 20.1135 34.0032 20.4301C33.877 20.7468 33.6885 21.0341 33.4493 21.2744C33.2101 21.5146 32.9252 21.7029 32.612 21.8277C32.2987 21.9524 31.9637 22.0111 31.6274 22ZM31.6274 17.6799C30.661 17.6799 29.9856 18.4649 29.9856 19.4324C29.9761 19.6599 30.0118 19.8869 30.0906 20.1001C30.1693 20.3133 30.2895 20.5082 30.444 20.6732C30.5984 20.8382 30.784 20.97 30.9897 21.0607C31.1953 21.1514 31.4169 21.1991 31.6411 21.2011C32.6098 21.2011 33.2852 20.416 33.2852 19.4463C33.2944 19.2188 33.2584 18.9918 33.1793 18.7787C33.1003 18.5657 32.9799 18.371 32.8252 18.2062C32.6705 18.0414 32.4848 17.9098 32.279 17.8194C32.0732 17.729 31.8516 17.6816 31.6274 17.6799Z" fill="#E86522"/>
<path d="M38.454 20.7H38.4312L36.9008 18.3795V21.9146H36.0571V16.9641H36.9667L38.4517 19.3054L39.9344 16.9641H40.844V21.9146H39.989V18.3657L38.454 20.7Z" fill="#E86522"/>
<path d="M46.727 18.241C46.7336 18.4752 46.6708 18.7061 46.5468 18.9037C46.4227 19.1012 46.2431 19.2565 46.0312 19.3493C46.602 19.5479 46.9999 19.8804 46.9999 20.5592C46.9999 21.4505 46.2836 21.9238 45.1943 21.9238H42.9385V16.9641H45.1261C46.1085 16.9641 46.727 17.4536 46.727 18.241ZM45.872 18.3818C45.872 17.9778 45.565 17.7445 45.0147 17.7445H43.7821V19.0607H44.9533C45.5036 19.0514 45.872 18.8321 45.872 18.3726V18.3818ZM46.1426 20.4599C46.1426 20.0374 45.8151 19.788 45.1398 19.788H43.7753V21.1457H45.1966C45.7879 21.1434 46.1426 20.9102 46.1426 20.4576V20.4599Z" fill="#E86522"/>
<path d="M26.4719 1.30461L27.3565 0.115479H19.4224L20.307 1.30461H26.4719Z" stroke="#E96B00" stroke-width="0.5" stroke-miterlimit="10"/>
<path d="M26.4902 12.2332H20.2889L19.4043 13.4223H27.3748L26.4902 12.2332Z" stroke="#E96B00" stroke-width="0.5" stroke-miterlimit="10"/>
<path d="M28.1348 0.355713L27.3275 1.49404L29.7107 6.25748H17.258L19.5025 1.51251L18.6861 0.36264L15.6025 6.88321L18.6634 13.1706L19.4752 12.0276L17.2694 7.50202H29.6971L27.3275 12.1038L28.1303 13.2329L31.3981 6.88321L28.1348 0.355713Z" fill="#E86522"/>
</g>
<defs>
<clipPath id="clip0">
<rect width="47" height="22" fill="white"/>
</clipPath>
</defs>
</svg>
